<svg xmlns="http://www.w3.org/2000/svg" viewBox="0 0 960 1120" width="960" height="1120"><title>Forma — website design preview</title><desc>Original visual direction by I&amp;I Studio. Sample content.</desc><rect x="0" y="0" width="960" height="1120" rx="0" fill="#f8f7f2"/><rect x="0" y="0" width="960" height="82" rx="0" fill="#f8f7f2"/><text x="48" y="49" fill="#252722" font-family="Arial" font-size="24" font-weight="700">FORMA /</text><text x="500" y="48" fill="#252722" font-family="Arial" font-size="14" font-weight="400">About    Work    Journal</text><rect x="760" y="24" width="152" height="36" rx="18" fill="#252722"/><text x="786" y="47" fill="#f8f7f2" font-family="Arial" font-size="13" font-weight="400">Our projects</text><text x="48" y="168" fill="#252722" font-family="Georgia" font-size="48" font-weight="400">Spaces for a better everyday.</text><text x="48" y="208" fill="#838779" font-family="Arial" font-size="12" font-weight="400">ARCHITECTURE &amp; INTERIORS  /  SINCE 2015</text><rect x="48" y="242" width="864" height="348" rx="2" fill="#d5dbd2"/><rect x="48" y="484" width="864" height="106" rx="0" fill="#b4b99f"/><circle cx="744" cy="328" r="70" fill="#d2e0c8"/><path d="m140 408 260-119 340 90v160H140z" fill="#c8b79c"/><path d="m140 408 260-119 340 90-300 106z" fill="#e4dccb"/><path d="m140 408 300 77v54H140z" fill="#ae9876"/><path d="m440 485 300-106v160H440z" fill="#8a8f7f"/><path d="M460 482 680 404v128H460z" fill="#424d46"/><path d="M155 435h250v94H155z" fill="#565a4c"/><text x="68" y="565" fill="#ffffff" font-family="Arial" font-size="12" font-weight="400">HOUSE 01 — A PLACE TO BELONG</text><text x="48" y="670" fill="#252722" font-family="Georgia" font-size="35" font-weight="400">Thoughtful spaces. Lasting value.</text><text x="48" y="715" fill="#838779" font-family="Arial" font-size="18" font-weight="400">We bring architecture, interiors and people together.</text><rect x="48" y="750" width="272" height="150" rx="14" fill="#e8e7de"/><text x="68" y="788" fill="#45493e" font-family="Arial" font-size="13" font-weight="400">01</text><text x="68" y="832" fill="#45493e" font-family="Arial" font-size="24" font-weight="600">Our approach</text><text x="68" y="863" fill="#45493e" font-family="Arial" font-size="13" font-weight="400">Made for what comes next.</text><rect x="344" y="750" width="272" height="150" rx="14" fill="#e8e7de"/><text x="364" y="788" fill="#45493e" font-family="Arial" font-size="13" font-weight="400">02</text><text x="364" y="832" fill="#45493e" font-family="Arial" font-size="24" font-weight="600">Selected projects</text><text x="364" y="863" fill="#45493e" font-family="Arial" font-size="13" font-weight="400">Made for what comes next.</text><rect x="640" y="750" width="272" height="150" rx="14" fill="#e8e7de"/><text x="660" y="788" fill="#45493e" font-family="Arial" font-size="13" font-weight="400">03</text><text x="660" y="832" fill="#45493e" font-family="Arial" font-size="24" font-weight="600">Meet the studio</text><text x="660" y="863" fill="#45493e" font-family="Arial" font-size="13" font-weight="400">Made for what comes next.</text><text x="48" y="990" fill="#252722" font-family="Georgia" font-size="33" font-weight="400">Let’s make room for something better.</text><rect x="0" y="1032" width="960" height="88" rx="0" fill="#252722"/><text x="48" y="1081" fill="#e8e7de" font-family="Arial" font-size="20" font-weight="700">FORMA /</text><text x="540" y="1081" fill="#e8e7de" font-family="Arial" font-size="13" font-weight="400">Instagram   LinkedIn   Contact</text></svg>
